<svg version="1.2" xmlns="http://www.w3.org/2000/svg" viewBox="0 0 500 117" width="500" height="117">
	<title>logo</title>
	<style>
		.s0 { fill: #ffffff } 
	</style>
	<g id="a181ba76a7">
		<path class="s0" d="m91.2 101.5v-44h-10.8v22h-22.2v-22h-10.7v44h-11.2v-88.2h22.2v22h10.9v22h10.7v-22h11.1v-22h22.2v88.2z"/>
		<path class="s0" d="m135.3 24.5v-11.2h22.1v11.2zm0 77v-66.2h22.2v66.2z"/>
		<path class="s0" d="m223.1 101.5v-55h-10.8v11h-10.9v44h-22.2v-66.2h22.2v11h10.8v-11h22.1v11h11v55.2z"/>
		<path class="s0" d="m278.1 101.5v-11h-10.9v-44.2h10.9v-11h33v-22h22.2v88.2zm33-55h-21.8v43.8h21.8z"/>
		<path class="s0" d="m399.4 90.6v10.9h-33.3v-10.9h-10.9v-66.4h10.9v-10.9h33.3v10.9h10.9v22.2h-11.2v-22h-32.7v66.1h32.7v-22.1h11.2v22.2z"/>
		<path class="s0" d="m476.4 57.5v11.1h-33v32.9h-11.2v-88.2h44.2v10.9h11v33.3zm-0.3-33.1h-32.7v32.9h32.7z"/>
	</g>
</svg>